<mxfile host="app.diagrams.net" agent="Mozilla/5.0 (X11; Linux x86_64; rv:138.0) Gecko/20100101 Firefox/138.0" version="27.0.6">
  <diagram name="Page-1" id="D6CwFJQHBC7KFg2RUZzC">
    <mxGraphModel dx="2134" dy="591" grid="0" gridSize="10" guides="1" tooltips="1" connect="1" arrows="1" fold="1" page="0" pageScale="1" pageWidth="850" pageHeight="1100" math="0" shadow="0">
      <root>
        <mxCell id="0" />
        <mxCell id="1" parent="0" />
        <mxCell id="9tPqZk99KiDnomQh7NcD-5" value="GrupoArmado" style="swimlane;fontStyle=1;align=center;verticalAlign=top;childLayout=stackLayout;horizontal=1;startSize=26;horizontalStack=0;resizeParent=1;resizeParentMax=0;resizeLast=0;collapsible=1;marginBottom=0;whiteSpace=wrap;html=1;" parent="1" vertex="1">
          <mxGeometry x="294" y="134" width="216" height="112" as="geometry" />
        </mxCell>
        <mxCell id="9tPqZk99KiDnomQh7NcD-6" value="+ poder: int" style="text;strokeColor=none;fillColor=none;align=left;verticalAlign=top;spacingLeft=4;spacingRight=4;overflow=hidden;rotatable=0;points=[[0,0.5],[1,0.5]];portConstraint=eastwest;whiteSpace=wrap;html=1;" parent="9tPqZk99KiDnomQh7NcD-5" vertex="1">
          <mxGeometry y="26" width="216" height="26" as="geometry" />
        </mxCell>
        <mxCell id="9tPqZk99KiDnomQh7NcD-7" value="" style="line;strokeWidth=1;fillColor=none;align=left;verticalAlign=middle;spacingTop=-1;spacingLeft=3;spacingRight=3;rotatable=0;labelPosition=right;points=[];portConstraint=eastwest;strokeColor=inherit;" parent="9tPqZk99KiDnomQh7NcD-5" vertex="1">
          <mxGeometry y="52" width="216" height="8" as="geometry" />
        </mxCell>
        <mxCell id="9tPqZk99KiDnomQh7NcD-8" value="+ aumentar_violencia(int): int" style="text;strokeColor=none;fillColor=none;align=left;verticalAlign=top;spacingLeft=4;spacingRight=4;overflow=hidden;rotatable=0;points=[[0,0.5],[1,0.5]];portConstraint=eastwest;whiteSpace=wrap;html=1;" parent="9tPqZk99KiDnomQh7NcD-5" vertex="1">
          <mxGeometry y="60" width="216" height="26" as="geometry" />
        </mxCell>
        <mxCell id="9tPqZk99KiDnomQh7NcD-9" value="+ extorsion_campesinos(int): int" style="text;strokeColor=none;fillColor=none;align=left;verticalAlign=top;spacingLeft=4;spacingRight=4;overflow=hidden;rotatable=0;points=[[0,0.5],[1,0.5]];portConstraint=eastwest;whiteSpace=wrap;html=1;" parent="9tPqZk99KiDnomQh7NcD-5" vertex="1">
          <mxGeometry y="86" width="216" height="26" as="geometry" />
        </mxCell>
        <mxCell id="9tPqZk99KiDnomQh7NcD-10" value="Campesino" style="swimlane;fontStyle=1;align=center;verticalAlign=top;childLayout=stackLayout;horizontal=1;startSize=26;horizontalStack=0;resizeParent=1;resizeParentMax=0;resizeLast=0;collapsible=1;marginBottom=0;whiteSpace=wrap;html=1;" parent="1" vertex="1">
          <mxGeometry x="20" y="137" width="216" height="346" as="geometry" />
        </mxCell>
        <mxCell id="9tPqZk99KiDnomQh7NcD-11" value="+ tolerance_level: int" style="text;strokeColor=none;fillColor=none;align=left;verticalAlign=top;spacingLeft=4;spacingRight=4;overflow=hidden;rotatable=0;points=[[0,0.5],[1,0.5]];portConstraint=eastwest;whiteSpace=wrap;html=1;" parent="9tPqZk99KiDnomQh7NcD-10" vertex="1">
          <mxGeometry y="26" width="216" height="26" as="geometry" />
        </mxCell>
        <mxCell id="9tPqZk99KiDnomQh7NcD-16" value="+ migrant: boolean" style="text;strokeColor=none;fillColor=none;align=left;verticalAlign=top;spacingLeft=4;spacingRight=4;overflow=hidden;rotatable=0;points=[[0,0.5],[1,0.5]];portConstraint=eastwest;whiteSpace=wrap;html=1;" parent="9tPqZk99KiDnomQh7NcD-10" vertex="1">
          <mxGeometry y="52" width="216" height="26" as="geometry" />
        </mxCell>
        <mxCell id="9tPqZk99KiDnomQh7NcD-15" value="+ total_money: float" style="text;strokeColor=none;fillColor=none;align=left;verticalAlign=top;spacingLeft=4;spacingRight=4;overflow=hidden;rotatable=0;points=[[0,0.5],[1,0.5]];portConstraint=eastwest;whiteSpace=wrap;html=1;" parent="9tPqZk99KiDnomQh7NcD-10" vertex="1">
          <mxGeometry y="78" width="216" height="26" as="geometry" />
        </mxCell>
        <mxCell id="9tPqZk99KiDnomQh7NcD-12" value="" style="line;strokeWidth=1;fillColor=none;align=left;verticalAlign=middle;spacingTop=-1;spacingLeft=3;spacingRight=3;rotatable=0;labelPosition=right;points=[];portConstraint=eastwest;strokeColor=inherit;" parent="9tPqZk99KiDnomQh7NcD-10" vertex="1">
          <mxGeometry y="104" width="216" height="8" as="geometry" />
        </mxCell>
        <mxCell id="9tPqZk99KiDnomQh7NcD-13" value="+ producir_aguacate(int): float" style="text;strokeColor=none;fillColor=none;align=left;verticalAlign=top;spacingLeft=4;spacingRight=4;overflow=hidden;rotatable=0;points=[[0,0.5],[1,0.5]];portConstraint=eastwest;whiteSpace=wrap;html=1;" parent="9tPqZk99KiDnomQh7NcD-10" vertex="1">
          <mxGeometry y="112" width="216" height="26" as="geometry" />
        </mxCell>
        <mxCell id="9tPqZk99KiDnomQh7NcD-14" value="+ producir_cana_azucar(int): float" style="text;strokeColor=none;fillColor=none;align=left;verticalAlign=top;spacingLeft=4;spacingRight=4;overflow=hidden;rotatable=0;points=[[0,0.5],[1,0.5]];portConstraint=eastwest;whiteSpace=wrap;html=1;" parent="9tPqZk99KiDnomQh7NcD-10" vertex="1">
          <mxGeometry y="138" width="216" height="26" as="geometry" />
        </mxCell>
        <mxCell id="9tPqZk99KiDnomQh7NcD-18" value="+ producir_citrico(int): float" style="text;strokeColor=none;fillColor=none;align=left;verticalAlign=top;spacingLeft=4;spacingRight=4;overflow=hidden;rotatable=0;points=[[0,0.5],[1,0.5]];portConstraint=eastwest;whiteSpace=wrap;html=1;" parent="9tPqZk99KiDnomQh7NcD-10" vertex="1">
          <mxGeometry y="164" width="216" height="26" as="geometry" />
        </mxCell>
        <mxCell id="9tPqZk99KiDnomQh7NcD-19" value="+ producir_maracuya(int): float" style="text;strokeColor=none;fillColor=none;align=left;verticalAlign=top;spacingLeft=4;spacingRight=4;overflow=hidden;rotatable=0;points=[[0,0.5],[1,0.5]];portConstraint=eastwest;whiteSpace=wrap;html=1;" parent="9tPqZk99KiDnomQh7NcD-10" vertex="1">
          <mxGeometry y="190" width="216" height="26" as="geometry" />
        </mxCell>
        <mxCell id="9tPqZk99KiDnomQh7NcD-20" value="+ producir_aceite(int): float" style="text;strokeColor=none;fillColor=none;align=left;verticalAlign=top;spacingLeft=4;spacingRight=4;overflow=hidden;rotatable=0;points=[[0,0.5],[1,0.5]];portConstraint=eastwest;whiteSpace=wrap;html=1;" parent="9tPqZk99KiDnomQh7NcD-10" vertex="1">
          <mxGeometry y="216" width="216" height="26" as="geometry" />
        </mxCell>
        <mxCell id="9tPqZk99KiDnomQh7NcD-21" value="+ producir_pina(int): float" style="text;strokeColor=none;fillColor=none;align=left;verticalAlign=top;spacingLeft=4;spacingRight=4;overflow=hidden;rotatable=0;points=[[0,0.5],[1,0.5]];portConstraint=eastwest;whiteSpace=wrap;html=1;" parent="9tPqZk99KiDnomQh7NcD-10" vertex="1">
          <mxGeometry y="242" width="216" height="26" as="geometry" />
        </mxCell>
        <mxCell id="9tPqZk99KiDnomQh7NcD-22" value="+ producir_platano(int): float" style="text;strokeColor=none;fillColor=none;align=left;verticalAlign=top;spacingLeft=4;spacingRight=4;overflow=hidden;rotatable=0;points=[[0,0.5],[1,0.5]];portConstraint=eastwest;whiteSpace=wrap;html=1;" parent="9tPqZk99KiDnomQh7NcD-10" vertex="1">
          <mxGeometry y="268" width="216" height="26" as="geometry" />
        </mxCell>
        <mxCell id="9tPqZk99KiDnomQh7NcD-24" value="+ extra_ingresos(int): float" style="text;strokeColor=none;fillColor=none;align=left;verticalAlign=top;spacingLeft=4;spacingRight=4;overflow=hidden;rotatable=0;points=[[0,0.5],[1,0.5]];portConstraint=eastwest;whiteSpace=wrap;html=1;" parent="9tPqZk99KiDnomQh7NcD-10" vertex="1">
          <mxGeometry y="294" width="216" height="26" as="geometry" />
        </mxCell>
        <mxCell id="9tPqZk99KiDnomQh7NcD-25" value="+ reducir_ingresos(int): float" style="text;strokeColor=none;fillColor=none;align=left;verticalAlign=top;spacingLeft=4;spacingRight=4;overflow=hidden;rotatable=0;points=[[0,0.5],[1,0.5]];portConstraint=eastwest;whiteSpace=wrap;html=1;" parent="9tPqZk99KiDnomQh7NcD-10" vertex="1">
          <mxGeometry y="320" width="216" height="26" as="geometry" />
        </mxCell>
        <mxCell id="Z28DEnwP0fWJ-TY-ljWu-3" value="" style="edgeStyle=orthogonalEdgeStyle;rounded=0;orthogonalLoop=1;jettySize=auto;html=1;" edge="1" parent="1" source="Z28DEnwP0fWJ-TY-ljWu-1" target="Z28DEnwP0fWJ-TY-ljWu-2">
          <mxGeometry relative="1" as="geometry" />
        </mxCell>
        <mxCell id="Z28DEnwP0fWJ-TY-ljWu-1" value="Variable global de violencia. Crear n objetos de las dos clases. Inicializa atributos de forma aleatoria. Todos los campesinos tienen la misma cantidad de dinero inicial" style="rounded=0;whiteSpace=wrap;html=1;" vertex="1" parent="1">
          <mxGeometry x="-819" y="201" width="176" height="92" as="geometry" />
        </mxCell>
        <mxCell id="Z28DEnwP0fWJ-TY-ljWu-8" value="" style="edgeStyle=orthogonalEdgeStyle;rounded=0;orthogonalLoop=1;jettySize=auto;html=1;" edge="1" parent="1" source="Z28DEnwP0fWJ-TY-ljWu-2" target="Z28DEnwP0fWJ-TY-ljWu-7">
          <mxGeometry relative="1" as="geometry" />
        </mxCell>
        <mxCell id="Z28DEnwP0fWJ-TY-ljWu-2" value="To Go" style="rounded=1;whiteSpace=wrap;html=1;arcSize=50;" vertex="1" parent="1">
          <mxGeometry x="-773" y="327" width="84" height="28" as="geometry" />
        </mxCell>
        <mxCell id="Z28DEnwP0fWJ-TY-ljWu-6" value="" style="edgeStyle=orthogonalEdgeStyle;rounded=0;orthogonalLoop=1;jettySize=auto;html=1;" edge="1" parent="1" source="Z28DEnwP0fWJ-TY-ljWu-5" target="Z28DEnwP0fWJ-TY-ljWu-1">
          <mxGeometry relative="1" as="geometry" />
        </mxCell>
        <mxCell id="Z28DEnwP0fWJ-TY-ljWu-5" value="To Setup" style="rounded=1;whiteSpace=wrap;html=1;arcSize=50;" vertex="1" parent="1">
          <mxGeometry x="-777.5" y="127" width="93" height="28" as="geometry" />
        </mxCell>
        <mxCell id="Z28DEnwP0fWJ-TY-ljWu-10" style="edgeStyle=orthogonalEdgeStyle;rounded=0;orthogonalLoop=1;jettySize=auto;html=1;entryX=0;entryY=0.5;entryDx=0;entryDy=0;" edge="1" parent="1" source="Z28DEnwP0fWJ-TY-ljWu-7" target="Z28DEnwP0fWJ-TY-ljWu-9">
          <mxGeometry relative="1" as="geometry" />
        </mxCell>
        <mxCell id="Z28DEnwP0fWJ-TY-ljWu-7" value="&lt;div&gt;Llamar:&lt;/div&gt;&lt;div&gt;prod_aguacate&lt;/div&gt;&lt;div&gt;prod_platano&lt;/div&gt;&lt;div&gt;...&lt;/div&gt;" style="rounded=0;whiteSpace=wrap;html=1;" vertex="1" parent="1">
          <mxGeometry x="-791" y="401" width="120" height="67" as="geometry" />
        </mxCell>
        <mxCell id="Z28DEnwP0fWJ-TY-ljWu-12" value="" style="edgeStyle=orthogonalEdgeStyle;rounded=0;orthogonalLoop=1;jettySize=auto;html=1;" edge="1" parent="1" source="Z28DEnwP0fWJ-TY-ljWu-9" target="Z28DEnwP0fWJ-TY-ljWu-11">
          <mxGeometry relative="1" as="geometry" />
        </mxCell>
        <mxCell id="Z28DEnwP0fWJ-TY-ljWu-13" value="Sí" style="edgeLabel;html=1;align=center;verticalAlign=middle;resizable=0;points=[];fontSize=15;" vertex="1" connectable="0" parent="Z28DEnwP0fWJ-TY-ljWu-12">
          <mxGeometry x="0.1847" y="3" relative="1" as="geometry">
            <mxPoint x="-29" y="3" as="offset" />
          </mxGeometry>
        </mxCell>
        <mxCell id="Z28DEnwP0fWJ-TY-ljWu-15" value="" style="edgeStyle=orthogonalEdgeStyle;rounded=0;orthogonalLoop=1;jettySize=auto;html=1;" edge="1" parent="1" source="Z28DEnwP0fWJ-TY-ljWu-9" target="Z28DEnwP0fWJ-TY-ljWu-14">
          <mxGeometry relative="1" as="geometry" />
        </mxCell>
        <mxCell id="Z28DEnwP0fWJ-TY-ljWu-16" value="No" style="edgeLabel;html=1;align=center;verticalAlign=middle;resizable=0;points=[];" vertex="1" connectable="0" parent="Z28DEnwP0fWJ-TY-ljWu-15">
          <mxGeometry x="-0.1084" y="-7" relative="1" as="geometry">
            <mxPoint x="5" y="1" as="offset" />
          </mxGeometry>
        </mxCell>
        <mxCell id="Z28DEnwP0fWJ-TY-ljWu-9" value="El campesino es migrante?" style="rhombus;whiteSpace=wrap;html=1;" vertex="1" parent="1">
          <mxGeometry x="-562" y="130" width="140" height="104" as="geometry" />
        </mxCell>
        <mxCell id="Z28DEnwP0fWJ-TY-ljWu-18" value="" style="edgeStyle=orthogonalEdgeStyle;rounded=0;orthogonalLoop=1;jettySize=auto;html=1;" edge="1" parent="1" source="Z28DEnwP0fWJ-TY-ljWu-11" target="Z28DEnwP0fWJ-TY-ljWu-17">
          <mxGeometry relative="1" as="geometry" />
        </mxCell>
        <mxCell id="Z28DEnwP0fWJ-TY-ljWu-11" value="&lt;div&gt;Llamar:&lt;/div&gt;&lt;div&gt;aumentar_violencia&lt;/div&gt;&lt;div&gt;extorsionar_campesino&lt;/div&gt;" style="whiteSpace=wrap;html=1;" vertex="1" parent="1">
          <mxGeometry x="-399" y="237" width="135" height="60" as="geometry" />
        </mxCell>
        <mxCell id="Z28DEnwP0fWJ-TY-ljWu-20" style="edgeStyle=orthogonalEdgeStyle;rounded=0;orthogonalLoop=1;jettySize=auto;html=1;entryX=0;entryY=0.5;entryDx=0;entryDy=0;" edge="1" parent="1" source="Z28DEnwP0fWJ-TY-ljWu-14" target="Z28DEnwP0fWJ-TY-ljWu-2">
          <mxGeometry relative="1" as="geometry">
            <Array as="points">
              <mxPoint x="-492" y="497" />
              <mxPoint x="-842" y="497" />
              <mxPoint x="-842" y="341" />
            </Array>
          </mxGeometry>
        </mxCell>
        <mxCell id="Z28DEnwP0fWJ-TY-ljWu-14" value="&lt;div&gt;Llamar:&lt;/div&gt;&lt;div&gt;extra_ingresos&lt;/div&gt;&lt;div&gt;reducir_ingresos&lt;/div&gt;" style="whiteSpace=wrap;html=1;" vertex="1" parent="1">
          <mxGeometry x="-559.5" y="380" width="135" height="60" as="geometry" />
        </mxCell>
        <mxCell id="Z28DEnwP0fWJ-TY-ljWu-19" style="edgeStyle=orthogonalEdgeStyle;rounded=0;orthogonalLoop=1;jettySize=auto;html=1;" edge="1" parent="1" source="Z28DEnwP0fWJ-TY-ljWu-17" target="Z28DEnwP0fWJ-TY-ljWu-14">
          <mxGeometry relative="1" as="geometry" />
        </mxCell>
        <mxCell id="Z28DEnwP0fWJ-TY-ljWu-17" value="&lt;div&gt;Llamar:&lt;/div&gt;&lt;div&gt;evaluar_migracion&lt;/div&gt;" style="whiteSpace=wrap;html=1;" vertex="1" parent="1">
          <mxGeometry x="-391.5" y="334" width="120" height="60" as="geometry" />
        </mxCell>
      </root>
    </mxGraphModel>
  </diagram>
</mxfile>
